<?xml version="1.0" encoding="UTF-8" standalone="no"?>
<svg
   width="100%"
   height="100%"
   viewBox="0 0 1200 800"
   version="1.1"
   xml:space="preserve"
   style="fill-rule:evenodd;clip-rule:evenodd;stroke-linejoin:round;stroke-miterlimit:1.41421;"
   id="svg12"
   sodipodi:docname="forestair-ir-rs-logo.svg"
   inkscape:export-filename="../src/forestair-ir-rs/assets/forestair-ir-rs-logo.png"
   inkscape:export-xdpi="31.354792"
   inkscape:export-ydpi="31.354792"
   inkscape:version="1.4.3 (0d15f75042, 2025-12-25)"
   xmlns:inkscape="http://www.inkscape.org/namespaces/inkscape"
   xmlns:sodipodi="http://sodipodi.sourceforge.net/DTD/sodipodi-0.dtd"
   xmlns="http://www.w3.org/2000/svg"
   xmlns:svg="http://www.w3.org/2000/svg"
   xmlns:serif="http://www.serif.com/"><defs
   id="defs12" /><sodipodi:namedview
   id="namedview12"
   pagecolor="#505050"
   bordercolor="#eeeeee"
   borderopacity="1"
   inkscape:showpageshadow="0"
   inkscape:pageopacity="0"
   inkscape:pagecheckerboard="0"
   inkscape:deskcolor="#505050"
   showgrid="false"
   inkscape:zoom="1.01875"
   inkscape:cx="576.19632"
   inkscape:cy="417.66871"
   inkscape:window-width="1906"
   inkscape:window-height="1026"
   inkscape:window-x="0"
   inkscape:window-y="0"
   inkscape:window-maximized="1"
   inkscape:current-layer="Layer-1" />
    <g
   id="g18"
   inkscape:label="fir-tree-3"
   style="clip-rule:evenodd;fill-rule:evenodd;stroke-linejoin:round;stroke-miterlimit:1.41421"
   transform="matrix(1.2534998,-0.4013114,0.4013114,1.2534998,194.2041,535.36164)"><path
     style="fill:#559527;fill-opacity:1;stroke:#fefefe;stroke-width:5;stroke-dasharray:none;stroke-opacity:1"
     d="m 279.50216,-297.09272 c -12.9117,48.06335 -30.2261,71.07871 -45.8102,95.09071 8.9787,-3.5183 18.0033,-6.8679 26.0285,-13.8819 -11.7529,42.16252 -29.3302,54.38292 -44.4653,75.82972 10.0398,1.6173 20.2034,2.2017 30.9305,-1.9088 -7.2808,22.1469 -24.33221,42.846451 -37.35991,63.351347 50.9574,-7.0849 96.14311,-9.768051 139.73851,-7.650451 -13.1146,-13.6384 -24.4806,-31.655096 -34.3575,-55.006796 9.5057,1.3879 15.8745,4.6579 34.0105,0.8676 -20.9148,-21.4412 -38.4018,-47.00624 -49.6276,-75.82962 9.1389,5.5849 18.2778,12.2401 27.4166,12.8407 -16.6613,-23.9265 -33.0599,-49.50812 -46.5041,-93.70251 z"
     id="path17"
     sodipodi:nodetypes="cccccccccccc" /><path
     style="fill:#2e791a;fill-opacity:1;stroke:none;stroke-width:5;stroke-dasharray:none;stroke-opacity:1"
     d="m 212.96268,-81.972848 c 1.4742,1.0018 46.64808,-69.090542 51.42418,-74.234042 3.5385,11.6444 9.7409,19.4834 16.4847,26.549 11.3317,-9.5105 14.1125,-23.8309 18.3934,-37.3075 7.3855,18.567 17.7318,36.7869 26.3756,55.3539 l 15.9641,22.037396 c -47.0244,-2.0169 -88.98788,3.169146 -128.64198,7.601246 z"
     id="path18"
     sodipodi:nodetypes="ccccccc" /></g><g
   id="g16"
   inkscape:label="fir-tree-2"
   style="clip-rule:evenodd;fill-rule:evenodd;stroke-linejoin:round;stroke-miterlimit:1.41421"
   transform="matrix(1.2354593,0.45382047,-0.45382047,1.2354593,350.47236,306.28215)"><path
     style="fill:#559527;fill-opacity:1;stroke:#fefefe;stroke-width:5;stroke-dasharray:none;stroke-opacity:1"
     d="m 279.50216,-297.09272 c -12.9117,48.06335 -30.2261,71.07871 -45.8102,95.09071 8.9787,-3.5183 18.0033,-6.8679 26.0285,-13.8819 -11.7529,42.16252 -29.3302,54.38292 -44.4653,75.82972 10.0398,1.6173 20.2034,2.2017 30.9305,-1.9088 -7.2808,22.1469 -24.6268,40.4017 -37.6545,60.906596 50.9574,-7.0849 96.33403,-4.90046 139.92943,-2.78286 -13.1146,-13.6384 -24.37693,-34.077936 -34.25383,-57.429636 9.5057,1.3879 15.8745,4.6579 34.0105,0.8676 -20.9148,-21.4412 -38.4018,-47.00624 -49.6276,-75.82962 9.1389,5.5849 18.2778,12.2401 27.4166,12.8407 -16.6613,-23.9265 -33.0599,-49.50812 -46.5041,-93.70251 z"
     id="path15"
     sodipodi:nodetypes="cccccccccccc" /><path
     style="fill:#2e791a;fill-opacity:1;stroke:none;stroke-width:5;stroke-dasharray:none;stroke-opacity:1"
     d="m 213.19756,-84.541894 c 1.4742,1.0018 46.4132,-66.521496 51.1893,-71.664996 3.5385,11.6444 9.7409,19.4834 16.4847,26.549 11.3317,-9.5105 14.1125,-23.8309 18.3934,-37.3075 7.3855,18.567 17.7318,36.7869 26.3756,55.3539 l 14.76335,25.260686 c -47.0244,-2.0169 -87.55225,-2.62319 -127.20635,1.80891 z"
     id="path16"
     sodipodi:nodetypes="ccccccc" /></g><g
   id="g14"
   inkscape:label="fir-tree-1"
   style="clip-rule:evenodd;fill-rule:evenodd;stroke-linejoin:round;stroke-miterlimit:1.41421"
   transform="matrix(1.3161735,0,0,1.3161735,241.92945,412.59848)"><path
     style="fill:#559527;fill-opacity:1;stroke:#fefefe;stroke-width:5;stroke-dasharray:none;stroke-opacity:1"
     d="m 279.50216,-297.09272 c -12.9117,48.06335 -30.2261,71.07871 -45.8102,95.09071 8.9787,-3.5183 18.0033,-6.8679 26.0285,-13.8819 -11.7529,42.16252 -29.3302,54.38292 -44.4653,75.82972 10.0398,1.6173 20.2034,2.2017 30.9305,-1.9088 -7.2808,22.1469 -24.6268,40.4017 -37.6545,60.906596 50.9574,-7.0849 95.3165,-3.893751 138.9119,-1.776151 -13.1146,-13.6384 -23.3594,-35.084645 -33.2363,-58.436345 9.5057,1.3879 15.8745,4.6579 34.0105,0.8676 -20.9148,-21.4412 -38.4018,-47.00624 -49.6276,-75.82962 9.1389,5.5849 18.2778,12.2401 27.4166,12.8407 -16.6613,-23.9265 -33.0599,-49.50812 -46.5041,-93.70251 z"
     id="path13"
     sodipodi:nodetypes="cccccccccccc" /><path
     style="fill:#2e791a;fill-opacity:1;stroke:none;stroke-width:5;stroke-dasharray:none;stroke-opacity:1"
     d="m 213.19756,-84.541894 c 1.4742,1.0018 46.4132,-66.521496 51.1893,-71.664996 3.5385,11.6444 9.7409,19.4834 16.4847,26.549 11.3317,-9.5105 14.1125,-23.8309 18.3934,-37.3075 7.3855,18.567 17.7318,36.7869 26.3756,55.3539 l 16.95339,26.192426 c -47.0244,-2.0169 -89.74229,-3.55493 -129.39639,0.87717 z"
     id="path14"
     sodipodi:nodetypes="ccccccc" /></g><g
   id="Layer-1"
   serif:id="Layer 1"
   inkscape:label="ferris">
        <g
   transform="matrix(0.70746402,0,0,0.70746402,614.06067,685.82656)"
   id="g1">
            <path
   d="m 0,-279.559 c -121.238,0 -231.39,14.576 -312.939,38.329 V -38.329 C -231.39,-14.575 -121.238,0 0,0 138.76,0 262.987,-19.092 346.431,-49.186 V -230.37 C 262.987,-260.465 138.76,-279.559 0,-279.559"
   style="fill:#a52b00;fill-rule:nonzero"
   id="path1" />
        </g>
        <g
   transform="matrix(0.70746402,0,0,0.70746402,947.56348,642.40383)"
   id="g2">
            <path
   d="m 0,-53.32 -14.211,-29.441 c 0.073,-1.118 0.131,-2.237 0.131,-3.36 0,-33.375 -34.706,-64.135 -93.097,-88.762 V 2.643 c 27.245,-11.492 49.348,-24.317 65.156,-38.125 -4.652,18.707 -20.564,56.553 -33.25,83.168 -20.85,38.066 -28.4,71.203 -27.432,72.844 0.617,1.033 7.73,-9.94 18.219,-27.721 C -60.074,58.028 -13.82,-8.373 -4.575,-25.287 5.897,-44.461 0,-53.32 0,-53.32"
   style="fill:#a52b00;fill-rule:nonzero"
   id="path2" />
        </g>
        <g
   transform="matrix(0.70746402,0,0,0.70746402,296.9187,653.56691)"
   id="g3">
            <path
   d="m 0,-99.954 c 0,6.428 1.293,12.76 3.788,18.969 l -8.511,15.15 c 0,0 -6.818,8.846 5.188,27.508 10.59,16.455 63.635,80.867 91.632,114.598 12.026,17.293 20.179,27.945 20.893,26.916 1.124,-1.633 -7.476,-34.1 -31.359,-71.141 -11.144,-19.895 -24.454,-46.252 -32.442,-65.721 22.303,14.116 51.483,26.92 86.152,37.94 V -204.17 C 51.797,-177.622 0,-140.737 0,-99.954"
   style="fill:#a52b00;fill-rule:nonzero"
   id="path3" />
        </g><path
   id="path19"
   style="clip-rule:evenodd;fill:#100500;fill-opacity:1;fill-rule:nonzero;stroke:none;stroke-width:0.794871;stroke-linejoin:round;stroke-miterlimit:1.41421;stroke-dasharray:none;stroke-opacity:1"
   d="m 611.93173,253.72178 c -3.84886,0 -7.43501,2.08361 -9.4453,5.50788 l -20.01093,33.80482 c -3.14461,0.27137 -6.29399,0.60069 -9.42128,0.96251 l -25.9118,-29.07006 c -2.62364,-2.93798 -6.52778,-4.2498 -10.2951,-3.47405 -3.79187,0.79021 -6.90805,3.56133 -8.25017,7.34526 l -13.27859,37.13469 c -3.07389,0.92553 -6.11857,1.90151 -9.15639,2.90303 l -30.77108,-23.16217 c -3.12874,-2.36341 -7.20128,-2.86244 -10.76297,-1.30878 -3.54941,1.53919 -6.10486,4.9082 -6.71963,8.87593 l -6.10516,39.16006 c -2.82424,1.53196 -5.62127,3.10776 -8.40942,4.71641 L 408.8726,320.65727 c -3.50539,-1.67595 -7.59686,-1.33034 -10.7898,0.91584 -3.2074,2.231 -5.08118,6.05313 -4.93542,10.07585 l 1.32337,39.73816 c -2.45696,2.05514 -4.88743,4.15284 -7.29604,6.27672 l -37.00172,-9.12324 c -3.75938,-0.91541 -7.69946,0.25414 -10.42051,3.09951 -2.73836,2.85548 -3.84691,6.9683 -2.96804,10.89986 l 8.7166,38.70775 c -2.02178,2.5089 -4.0227,5.0449 -5.98393,7.61383 L 301.5218,427.4765 c -3.83444,-0.11361 -7.49383,1.80816 -9.63689,5.16296 -2.14524,3.33817 -2.46988,7.61302 -0.8752,11.29418 l 15.74211,36.11148 c -1.52902,2.90035 -3.04864,5.82416 -4.50983,8.79253 l -37.44,6.37146 c -3.80269,0.64259 -7.00632,3.3048 -8.48554,7.02721 -1.47201,3.73182 -0.98819,7.98373 1.24868,11.25604 l 22.15168,32.16675 c 7.00898,8.26537 6.0915,3.97182 8.12676,5.52469 l 650.19271,-1.65833 c -0.2449,0.48532 5.7692,-2.50538 6.085,-3.86636 l 22.1404,-32.16675 c 2.2586,-3.27231 2.7164,-7.52422 1.2487,-11.25604 -1.4698,-3.71228 -4.6842,-6.37594 -8.4884,-7.02721 l -37.4372,-6.37146 c -1.4489,-2.96837 -2.9703,-5.89218 -4.4957,-8.79253 l 15.7281,-36.11148 c 1.6185,-3.68116 1.2763,-7.95601 -0.8682,-11.29418 -2.1366,-3.3548 -5.7658,-5.31565 -9.6327,-5.16296 l -37.9939,1.38505 c -1.9677,-2.56893 -3.9667,-5.11506 -6.0051,-7.61383 l 8.7307,-38.70775 c 0.8839,-3.93156 -0.2312,-8.04438 -2.9595,-10.89986 -2.7146,-2.84537 -6.6593,-4.02288 -10.4093,-3.09951 l -37.00876,9.12324 c -2.39633,-2.12388 -4.83395,-4.22158 -7.29884,-6.27672 l 1.33317,-39.73816 c 0.14287,-4.02272 -1.7265,-7.84485 -4.93822,-10.07585 -3.20811,-2.24618 -7.28217,-2.58528 -10.79118,-0.91584 l -34.52557,16.46004 c -2.78094,-1.59925 -5.57667,-3.18445 -8.40234,-4.71641 l -6.10096,-39.16006 c -0.6184,-3.96773 -3.16417,-7.33674 -6.72947,-8.87593 -3.55229,-1.54642 -7.62535,-1.04667 -10.74471,1.30878 l -30.78096,23.16217 c -3.0306,-1.00948 -6.07449,-1.9775 -9.15776,-2.90303 l -13.26734,-37.13469 c -1.34934,-3.78393 -4.45967,-6.56373 -8.25298,-7.34526 -3.78032,-0.77575 -7.67082,0.53607 -10.29229,3.47405 l -25.90891,29.07006 c -3.13379,-0.36182 -6.26758,-0.69114 -9.41147,-0.96251 l -20.0053,-33.80482 c -2.02761,-3.42427 -5.60603,-5.50788 -9.46356,-5.50788 z"
   sodipodi:nodetypes="sccccccccccccccccccccccccccccccccccccccccccccccccccccccccccccccccccs" />
        <g
   transform="matrix(0.70746402,0,0,0.70746402,1005.9434,434.53039)"
   id="g4"
   style="stroke:none">
            <path
   d="m 0,240.343 -93.415,-68.811 c -0.88,-3.064 -1.756,-6.127 -2.662,-9.162 l 30.683,-44.451 c 3.13,-4.522 3.765,-10.398 1.731,-15.555 -2.037,-5.13 -6.491,-8.81 -11.763,-9.71 l -51.884,-8.805 c -2.008,-4.102 -4.116,-8.142 -6.23,-12.15 l 21.797,-49.903 c 2.243,-5.087 1.769,-10.995 -1.203,-15.608 -2.961,-4.636 -7.99,-7.344 -13.349,-7.133 l -52.656,1.913 c -2.727,-3.55 -5.496,-7.068 -8.321,-10.521 l 12.1,-53.49 c 1.225,-5.433 -0.322,-11.118 -4.103,-15.064 -3.762,-3.932 -9.229,-5.559 -14.426,-4.283 l -51.289,12.608 c -3.321,-2.935 -6.698,-5.833 -10.114,-8.673 l 1.848,-54.914 c 0.198,-5.559 -2.393,-10.842 -6.844,-13.925 -4.446,-3.104 -10.093,-3.573 -14.956,-1.266 l -47.847,22.747 c -3.854,-2.21 -7.728,-4.4 -11.644,-6.517 l -8.455,-54.115 c -0.857,-5.483 -4.385,-10.139 -9.326,-12.266 -4.923,-2.137 -10.568,-1.447 -14.891,1.808 l -42.659,32.007 c -4.2,-1.395 -8.419,-2.732 -12.692,-4.011 l -18.386,-51.316 c -1.87,-5.229 -6.181,-9.071 -11.438,-10.151 -5.239,-1.072 -10.63,0.742 -14.263,4.802 l -35.906,40.171 c -4.343,-0.5 -8.686,-0.956 -13.043,-1.331 l -27.724,-46.713 c -2.81,-4.732 -7.77,-7.612 -13.116,-7.612 -5.334,0 -10.304,2.88 -13.09,7.612 l -27.733,46.713 c -4.358,0.375 -8.722,0.831 -13.056,1.331 l -35.91,-40.171 c -3.636,-4.06 -9.047,-5.874 -14.268,-4.802 -5.255,1.092 -9.573,4.922 -11.433,10.151 l -18.402,51.316 c -4.26,1.279 -8.481,2.627 -12.691,4.011 l -42.644,-32.007 c -4.336,-3.266 -9.98,-3.955 -14.916,-1.808 -4.919,2.127 -8.461,6.783 -9.313,12.266 l -8.461,54.115 c -3.914,2.117 -7.789,4.294 -11.653,6.517 l -47.842,-22.747 c -4.858,-2.316 -10.529,-1.838 -14.954,1.266 -4.445,3.083 -7.042,8.366 -6.84,13.925 l 1.835,54.914 c -3.405,2.84 -6.774,5.738 -10.112,8.673 l -51.279,-12.608 c -5.21,-1.265 -10.67,0.351 -14.441,4.283 -3.795,3.946 -5.331,9.631 -4.113,15.064 l 12.079,53.49 c -2.802,3.467 -5.575,6.971 -8.293,10.521 l -52.655,-1.913 c -5.314,-0.157 -10.386,2.497 -13.356,7.133 -2.973,4.613 -3.423,10.521 -1.213,15.608 l 21.816,49.903 c -2.119,4.008 -4.224,8.048 -6.249,12.15 l -51.887,8.805 c -5.27,0.888 -9.71,4.566 -11.76,9.71 -2.04,5.157 -1.37,11.033 1.73,15.555 l 30.7,44.451 c -0.24,0.784 -0.46,1.577 -0.7,2.364 l -86.77,92.17 c 0,0 -13.29,10.423 6.07,34.916 17.07,21.605 104.724,107.252 151.018,152.123 19.554,22.779 32.948,36.886 34.349,35.666 2.208,-1.94 -9.387,-43.385 -47.902,-92.012 -29.685,-43.629 -68.215,-110.733 -59.175,-118.467 0,0 10.27,-13.045 30.893,-22.435 0.753,0.603 -0.781,-0.598 0,0 0,0 435.152,200.732 838.797,3.396 46.108,-8.273 74.023,16.43 74.023,16.43 9.628,5.58 -15.301,74.578 -35.798,120.254 -27.881,51.863 -31.97,92.332 -29.604,93.736 1.491,0.889 11.634,-14.545 26.104,-39.109 C -79.843,391.654 -12.354,296.816 0,273.782 14.006,247.663 0,240.343 0,240.343"
   style="fill:#f74c00;fill-rule:nonzero;stroke:none;stroke-width:1.1;stroke-dasharray:none;stroke-opacity:1"
   id="path4" />
        </g>
        <g
   transform="matrix(0.70746402,0,0,0.70746402,510.05214,577.30795)"
   id="g5">
            <path
   d="m 0,167.33 c -1.664,-1.42 -2.536,-2.262 -2.536,-2.262 L 140.006,153.391 C 23.733,0 -69.418,122.193 -79.333,135.855 v 31.475 z"
   style="fill-rule:nonzero"
   id="path5" />
        </g>
        <g
   transform="matrix(0.70746402,0,0,0.70746402,720.0218,572.85375)"
   id="g6">
            <path
   d="m 0,171.974 c 1.663,-1.42 2.536,-2.264 2.536,-2.264 L -134.448,159.687 C -18.12,0 69.421,126.835 79.335,140.497 v 31.477 z"
   style="fill-rule:nonzero"
   id="path6" />
        </g>
        <g
   transform="matrix(0.70746402,0,0,0.70746402,874.93798,808.9352)"
   id="g7">
            <path
   d="m 0,-314.014 c 0,0 -15.576,62.041 -112.453,127.238 l -27.166,6.367 c 0,0 -87.881,-160.259 -212.383,20.334 0,0 38.802,-22.591 142.822,4.92 0,0 -47.85,73.239 -144.242,70.989 0,0 92.373,110.82 232.94,-49.252 0,0 148.595,-57.463 160.646,-180.596 z"
   style="fill:#f74c00;fill-rule:nonzero"
   id="path7" />
        </g>
        <g
   transform="matrix(0.70746402,0,0,0.70746402,670.69175,595.68857)"
   id="g8">
            <path
   d="m 0,-92.063 c 0,0 43.486,-47.615 86.974,0 0,0 34.17,63.492 0,95.234 0,0 -55.912,44.444 -86.974,0 0,0 -37.275,-34.921 0,-95.234"
   style="fill-rule:nonzero"
   id="path8" />
        </g>
        <g
   transform="matrix(0.70746402,0,0,0.70746402,706.30973,543.05254)"
   id="g9">
            <path
   d="m 0,0.002 c 0,18.541 -10.93,33.572 -24.408,33.572 -13.477,0 -24.406,-15.031 -24.406,-33.572 0,-18.541 10.929,-33.574 24.406,-33.574 C -10.93,-33.572 0,-18.539 0,0.002"
   style="fill:#ffffff;fill-rule:nonzero"
   id="path9" />
        </g>
        <g
   transform="matrix(0.70746402,0,0,0.70746402,533.37865,591.00091)"
   id="g10">
            <path
   d="m 0,-98.439 c 0,0 74.596,-33.028 94.956,40.691 0,0 21.327,85.926 -61.259,90.776 0,0 -105.31,-20.283 -33.697,-131.467"
   style="fill-rule:nonzero"
   id="path10" />
        </g>
        <g
   transform="matrix(0.70746402,0,0,0.70746402,559.88449,543.91494)"
   id="g11">
            <path
   d="m 0,0 c 0,19.119 -11.27,34.627 -25.173,34.627 -13.898,0 -25.171,-15.508 -25.171,-34.627 0,-19.124 11.273,-34.627 25.171,-34.627 C -11.27,-34.627 0,-19.124 0,0"
   style="fill:#ffffff;fill-rule:nonzero"
   id="path11" />
        </g>
        <g
   transform="matrix(0.70746402,0,0,0.70746402,503.73378,721.63485)"
   id="g12">
            <path
   d="M 0,-25.102 C 91.833,-36.676 144.904,-37.754 144.904,-37.754 22.037,-199.838 -77.661,-53.098 -77.661,-53.098 c -24.982,-8.932 -50.453,-43.613 -69.477,-75.59 l -76.237,-22.58 C -135.502,-2.127 -70.08,0.146 -70.08,0.146 66.134,174.736 130.663,34.441 130.663,34.441 54.195,25.759 0,-25.102 0,-25.102"
   style="fill:#f74c00;fill-rule:nonzero"
   id="path12" />
        </g>
    </g>
</svg>
